<svg xmlns="http://www.w3.org/2000/svg" viewBox="0 0 512 512" width="512" height="512">
  <!-- Outer blue rounded rect (border/shadow) -->
  <rect x="30" y="20" width="452" height="480" rx="72" ry="72" fill="#1565C0"/>
  <!-- Mid blue gradient body -->
  <rect x="44" y="34" width="424" height="452" rx="60" ry="60" fill="#42A5F5"/>
  <!-- Inner white paper area -->
  <rect x="80" y="70" width="352" height="390" rx="36" ry="36" fill="#EEF4FF"/>
  <!-- Top handle/tab pill -->
  <rect x="168" y="96" width="180" height="46" rx="23" ry="23" fill="#1E88E5"/>
  <!-- Row 1: square block -->
  <rect x="104" y="182" width="110" height="100" rx="18" ry="18" fill="#1E88E5"/>
  <!-- Row 1: lines -->
  <rect x="236" y="196" width="148" height="22" rx="11" ry="11" fill="#90CAF9"/>
  <rect x="236" y="230" width="120" height="22" rx="11" ry="11" fill="#BBDEFB"/>
  <!-- Row 2: square block -->
  <rect x="104" y="306" width="110" height="100" rx="18" ry="18" fill="#29B6F6"/>
  <!-- Row 2: lines -->
  <rect x="236" y="320" width="148" height="22" rx="11" ry="11" fill="#90CAF9"/>
  <rect x="236" y="354" width="120" height="22" rx="11" ry="11" fill="#BBDEFB"/>
  <!-- Row 3: square block (lighter) -->
  <rect x="104" y="430" width="110" height="100" rx="18" ry="18" fill="#4FC3F7"/>
  <!-- Row 3: lines (partially visible) -->
  <rect x="236" y="444" width="148" height="22" rx="11" ry="11" fill="#90CAF9"/>
</svg>
